<svg xmlns="http://www.w3.org/2000/svg" width="960" height="660" viewBox="0 0 960 660" role="img" aria-labelledby="title desc">
<title id="title">四步，生成第一份报告</title>
<desc id="desc">连接 AI 模型: 设置 → 模型与运行时：填写模型信息，保存并测试连接。 → 检查可用能力: 能力中心：查看 Skill、工具，并检测所需数据源。 → 发起个股研究: 选择市场、输入股票代码，检查默认方案后运行。 → 阅读已保存的报告: 检查依据、数据时间与风险，留意缺失信息和部分结果。</desc>
<rect width="960" height="660" rx="20" fill="#f8fafc"/>
<g font-family="-apple-system, BlinkMacSystemFont, Segoe UI, PingFang SC, Microsoft YaHei, sans-serif">
<text x="40" y="57" font-size="32" font-weight="700" fill="#172b42">四步，生成第一份报告</text>
<text x="40" y="91" font-size="20" fill="#516174">网站启动后这样操作 · 先从一只股票开始</text>
<rect x="40" y="120" width="880" height="108" rx="12" fill="white" stroke="#dce3ec"/>
<rect x="56" y="144" width="60" height="60" rx="14" fill="#edf6f0"/>
<text x="86" y="184" text-anchor="middle" font-size="27" font-weight="700" fill="#17624e">01</text>
<text x="140" y="161" font-size="26" font-weight="650" fill="#172b42">连接 AI 模型</text>
<text x="140" y="197" font-size="21" fill="#43566c">设置 → 模型与运行时：填写模型信息，保存并测试连接。</text>
<path d="M86 231v13m-5-5 5 5 5-5" fill="none" stroke="#17624e" stroke-width="2"/>
<rect x="40" y="248" width="880" height="108" rx="12" fill="white" stroke="#dce3ec"/>
<rect x="56" y="272" width="60" height="60" rx="14" fill="#edf6f0"/>
<text x="86" y="312" text-anchor="middle" font-size="27" font-weight="700" fill="#17624e">02</text>
<text x="140" y="289" font-size="26" font-weight="650" fill="#172b42">检查可用能力</text>
<text x="140" y="325" font-size="21" fill="#43566c">能力中心：查看 Skill、工具，并检测所需数据源。</text>
<path d="M86 359v13m-5-5 5 5 5-5" fill="none" stroke="#17624e" stroke-width="2"/>
<rect x="40" y="376" width="880" height="108" rx="12" fill="white" stroke="#dce3ec"/>
<rect x="56" y="400" width="60" height="60" rx="14" fill="#edf6f0"/>
<text x="86" y="440" text-anchor="middle" font-size="27" font-weight="700" fill="#17624e">03</text>
<text x="140" y="417" font-size="26" font-weight="650" fill="#172b42">发起个股研究</text>
<text x="140" y="453" font-size="21" fill="#43566c">选择市场、输入股票代码，检查默认方案后运行。</text>
<path d="M86 487v13m-5-5 5 5 5-5" fill="none" stroke="#17624e" stroke-width="2"/>
<rect x="40" y="504" width="880" height="108" rx="12" fill="white" stroke="#dce3ec"/>
<rect x="56" y="528" width="60" height="60" rx="14" fill="#edf6f0"/>
<text x="86" y="568" text-anchor="middle" font-size="27" font-weight="700" fill="#17624e">04</text>
<text x="140" y="545" font-size="26" font-weight="650" fill="#172b42">阅读已保存的报告</text>
<text x="140" y="581" font-size="21" fill="#43566c">检查依据、数据时间与风险，留意缺失信息和部分结果。</text>
<text x="920" y="638" text-anchor="end" font-size="16" fill="#516174">AI STOCK · 使用示意，非界面截图</text>
</g></svg>
