<svg xmlns="http://www.w3.org/2000/svg" width="960" height="660" viewBox="0 0 960 660" role="img" aria-labelledby="title desc">
<title id="title">From a question to evidence</title>
<desc id="desc">Ask a question: Choose a stock, a research goal, or screening conditions. → Gather data and calculate: Use available prices, news, fundamentals, and indicators. → Let AI apply a method: Selected Skills guide analysis; expert discussion is optional. → Review the result: Read saved evidence and risks; explore simulation separately.</desc>
<rect width="960" height="660" rx="20" fill="#f8fafc"/>
<g font-family="-apple-system, BlinkMacSystemFont, Segoe UI, PingFang SC, Microsoft YaHei, sans-serif">
<text x="40" y="57" font-size="32" font-weight="700" fill="#172b42">From a question to evidence</text>
<text x="40" y="91" font-size="20" fill="#516174">A research workflow · available inputs depend on your sources</text>
<rect x="40" y="120" width="880" height="108" rx="12" fill="white" stroke="#dce3ec"/>
<rect x="56" y="144" width="60" height="60" rx="14" fill="#edf3fc"/>
<text x="86" y="184" text-anchor="middle" font-size="27" font-weight="700" fill="#2456a6">01</text>
<text x="140" y="161" font-size="26" font-weight="650" fill="#172b42">Ask a question</text>
<text x="140" y="197" font-size="21" fill="#43566c">Choose a stock, a research goal, or screening conditions.</text>
<path d="M86 231v13m-5-5 5 5 5-5" fill="none" stroke="#2456a6" stroke-width="2"/>
<rect x="40" y="248" width="880" height="108" rx="12" fill="white" stroke="#dce3ec"/>
<rect x="56" y="272" width="60" height="60" rx="14" fill="#edf3fc"/>
<text x="86" y="312" text-anchor="middle" font-size="27" font-weight="700" fill="#2456a6">02</text>
<text x="140" y="289" font-size="26" font-weight="650" fill="#172b42">Gather data and calculate</text>
<text x="140" y="325" font-size="21" fill="#43566c">Use available prices, news, fundamentals, and indicators.</text>
<path d="M86 359v13m-5-5 5 5 5-5" fill="none" stroke="#2456a6" stroke-width="2"/>
<rect x="40" y="376" width="880" height="108" rx="12" fill="white" stroke="#dce3ec"/>
<rect x="56" y="400" width="60" height="60" rx="14" fill="#edf3fc"/>
<text x="86" y="440" text-anchor="middle" font-size="27" font-weight="700" fill="#2456a6">03</text>
<text x="140" y="417" font-size="26" font-weight="650" fill="#172b42">Let AI apply a method</text>
<text x="140" y="453" font-size="21" fill="#43566c">Selected Skills guide analysis; expert discussion is optional.</text>
<path d="M86 487v13m-5-5 5 5 5-5" fill="none" stroke="#2456a6" stroke-width="2"/>
<rect x="40" y="504" width="880" height="108" rx="12" fill="white" stroke="#dce3ec"/>
<rect x="56" y="528" width="60" height="60" rx="14" fill="#edf3fc"/>
<text x="86" y="568" text-anchor="middle" font-size="27" font-weight="700" fill="#2456a6">04</text>
<text x="140" y="545" font-size="26" font-weight="650" fill="#172b42">Review the result</text>
<text x="140" y="581" font-size="21" fill="#43566c">Read saved evidence and risks; explore simulation separately.</text>
<text x="920" y="638" text-anchor="end" font-size="16" fill="#516174">AI STOCK · Workflow illustration, not a UI screenshot</text>
</g></svg>
